<?xml version="1.0" encoding="utf-8"?>
<svg version="1.1" xmlns:xlink="http://www.w3.org/1999/xlink" width="30px" height="25px" xmlns="http://www.w3.org/2000/svg">
  <g transform="matrix(1 0 0 1 -1271 -255 )">
    <path d="M 22.75390625 11.62109375  C 23.0013020833333 11.8684895833333  23.125 12.1614583333333  23.125 12.5  C 23.125 12.8385416666667  23.0013020833333 13.1315104166667  22.75390625 13.37890625  L 12.12890625 24.00390625  C 11.8815104166667 24.2513020833333  11.5885416666667 24.375  11.25 24.375  C 10.9114583333333 24.375  10.6184895833333 24.2513020833333  10.37109375 24.00390625  C 10.1236979166667 23.7565104166667  10 23.4635416666667  10 23.125  L 10 17.5  L 1.25 17.5  C 0.911458333333333 17.5  0.618489583333333 17.3763020833333  0.37109375 17.12890625  C 0.123697916666667 16.8815104166667  0 16.5885416666667  0 16.25  L 0 8.75  C 0 8.41145833333333  0.123697916666667 8.11848958333333  0.37109375 7.87109375  C 0.618489583333333 7.62369791666667  0.911458333333333 7.5  1.25 7.5  L 10 7.5  L 10 1.875  C 10 1.53645833333333  10.1236979166667 1.24348958333333  10.37109375 0.996093749999999  C 10.6184895833333 0.748697916666666  10.9114583333333 0.625000000000001  11.25 0.625000000000001  C 11.5885416666667 0.625000000000001  11.8815104166667 0.748697916666666  12.12890625 0.996093749999999  L 22.75390625 11.62109375  Z M 28.349609375 1.650390625  C 29.4498697916667 2.75065104166667  30 4.07552083333333  30 5.625  L 30 19.375  C 30 20.9244791666667  29.4498697916667 22.2493489583333  28.349609375 23.349609375  C 27.2493489583333 24.4498697916667  25.9244791666667 25  24.375 25  L 18.125 25  C 17.9557291666667 25  17.8092447916667 24.9381510416667  17.685546875 24.814453125  C 17.5618489583333 24.6907552083333  17.5 24.5442708333333  17.5 24.375  C 17.5 24.3229166666667  17.4934895833333 24.1927083333333  17.48046875 23.984375  C 17.4674479166667 23.7760416666667  17.4641927083333 23.603515625  17.470703125 23.466796875  C 17.4772135416667 23.330078125  17.4967447916667 23.1770833333333  17.529296875 23.0078125  C 17.5618489583333 22.8385416666667  17.626953125 22.7115885416667  17.724609375 22.626953125  C 17.822265625 22.5423177083333  17.9557291666667 22.5  18.125 22.5  L 24.375 22.5  C 25.234375 22.5  25.9700520833333 22.1940104166667  26.58203125 21.58203125  C 27.1940104166667 20.9700520833333  27.5 20.234375  27 19.375  L 27 5.625  C 27.5 4.765625  27.1940104166667 4.02994791666667  26.58203125 3.41796875  C 25.9700520833333 2.80598958333333  25.234375 2.5  24.375 2.5  L 18.75 2.5  L 18.53515625 2.5  L 18.28125 2.5  C 18.28125 2.5  18.2063802083333 2.49348958333333  18.056640625 2.48046875  C 17.9069010416667 2.46744791666667  17.83203125 2.44791666666667  17.83203125 2.421875  C 17.83203125 2.39583333333333  17.7799479166667 2.36002604166667  17.67578125 2.314453125  C 17.5716145833333 2.26888020833333  17.5260416666667 2.21028645833333  17.5390625 2.138671875  C 17.5520833333333 2.06705729166667  17.5390625 1.97916666666667  17.5 1.875  C 17.5 1.82291666666667  17.4934895833333 1.69270833333333  17.48046875 1.484375  C 17.4674479166667 1.27604166666667  17.4641927083333 1.103515625  17.470703125 0.966796875000001  C 17.4772135416667 0.830078125  17.4967447916667 0.677083333333331  17.529296875 0.507812499999999  C 17.5618489583333 0.338541666666664  17.626953125 0.211588541666666  17.724609375 0.126953125000001  C 17.822265625 0.0423177083333309  17.9557291666667 0  18.125 0  L 24.375 0  C 25.9244791666667 0  27.2493489583333 0.55013020833333  28.349609375 1.650390625  Z " fill-rule="nonzero" fill="#000000" stroke="none" transform="matrix(1 0 0 1 1271 255 )" />
  </g>
</svg>