<?xml version="1.0" encoding="utf-8"?>
<svg version="1.1" xmlns:xlink="http://www.w3.org/1999/xlink" width="24px" height="23px" xmlns="http://www.w3.org/2000/svg">
  <g transform="matrix(1 0 0 1 -117 -731 )">
    <path d="M 5.07421875 15.424375  C 5.44140625 14.9739583333333  5.625 14.4325  5.625 13.8  C 5.625 13.1675  5.44140625 12.6260416666667  5.07421875 12.175625  C 4.70703125 11.7252083333333  4.265625 11.5  3.75 11.5  C 3.234375 11.5  2.79296875 11.7252083333333  2.42578125 12.175625  C 2.05859375 12.6260416666667  1.875 13.1675  1.875 13.8  C 1.875 14.4325  2.05859375 14.9739583333333  2.42578125 15.424375  C 2.79296875 15.8747916666667  3.234375 16.1  3.75 16.1  C 4.265625 16.1  4.70703125 15.8747916666667  5.07421875 15.424375  Z M 7.08984375 4.068125  L 6.046875 9.2  L 17.953125 9.2  L 16.91015625 4.068125  C 16.89453125 3.99145833333333  16.83984375 3.90760416666666  16.74609375 3.8165625  C 16.65234375 3.72552083333333  16.5703125 3.68  16.5 3.68  L 7.5 3.68  C 7.4296875 3.68  7.34765625 3.72552083333333  7.25390625 3.8165625  C 7.16015625 3.90760416666666  7.10546875 3.99145833333333  7.08984375 4.068125  Z M 21.57421875 15.424375  C 21.94140625 14.9739583333333  22.125 14.4325  22.125 13.8  C 22.125 13.1675  21.94140625 12.6260416666667  21.57421875 12.175625  C 21.20703125 11.7252083333333  20.765625 11.5  20.25 11.5  C 19.734375 11.5  19.29296875 11.7252083333333  18.92578125 12.175625  C 18.55859375 12.6260416666667  18.375 13.1675  18.375 13.8  C 18.375 14.4325  18.55859375 14.9739583333333  18.92578125 15.424375  C 19.29296875 15.8747916666667  19.734375 16.1  20.25 16.1  C 20.765625 16.1  21.20703125 15.8747916666667  21.57421875 15.424375  Z M 23.232421875 10.1415625  C 23.744140625 10.7692708333333  24 11.52875  24 12.42  L 24 17.94  C 24 18.0741666666667  23.96484375 18.184375  23.89453125 18.270625  C 23.82421875 18.356875  23.734375 18.4  23.625 18.4  L 22.5 18.4  L 22.5 20.24  C 22.5 21.0066666666667  22.28125 21.6583333333333  21.84375 22.195  C 21.40625 22.7316666666667  20.875 23  20.25 23  C 19.625 23  19.09375 22.7316666666667  18.65625 22.195  C 18.21875 21.6583333333333  18 21.0066666666667  18 20.24  L 18 18  L 6 18  L 6 20.24  C 6 21.0066666666667  5.78125 21.6583333333333  5.34375 22.195  C 4.90625 22.7316666666667  4.375 23  3.75 23  C 3.125 23  2.59375 22.7316666666667  2.15625 22.195  C 1.71875 21.6583333333333  1.5 21.0066666666667  1.5 20.24  L 1.5 18.4  L 0.375 18.4  C 0.265625 18.4  0.17578125 18.356875  0.10546875 18.270625  C 0.03515625 18.184375  0 18.0741666666667  0 17.94  L 0 12.42  C 0 11.52875  0.255859375 10.7692708333333  0.767578125 10.1415625  C 1.279296875 9.51385416666667  1.8984375 9.2  2.625 9.2  L 2.953125 9.2  L 4.18359375 3.176875  C 4.36328125 2.27604166666667  4.76953125 1.52135416666666  5.40234375 0.9128125  C 6.03515625 0.304270833333332  6.734375 0  7.5 0  L 16.5 0  C 17.265625 0  17.96484375 0.304270833333332  18.59765625 0.9128125  C 19.23046875 1.52135416666666  19.63671875 2.27604166666667  19.81640625 3.176875  L 21.046875 9.2  L 21.375 9.2  C 22.1015625 9.2  22.720703125 9.51385416666667  23.232421875 10.1415625  Z " fill-rule="nonzero" fill="#000000" stroke="none" transform="matrix(1 0 0 1 117 731 )" />
  </g>
</svg>