<?xml version="1.0" encoding="utf-8"?>
<svg version="1.1" xmlns:xlink="http://www.w3.org/1999/xlink" width="25px" height="24px" xmlns="http://www.w3.org/2000/svg">
  <g transform="matrix(1 0 0 1 -32 -671 )">
    <path d="M 5.28564453125 16.095  C 5.66813151041667 15.625  5.859375 15.06  5.859375 14.4  C 5.859375 13.74  5.66813151041667 13.175  5.28564453125 12.705  C 4.90315755208333 12.235  4.443359375 12  3.90625 12  C 3.369140625 12  2.90934244791667 12.235  2.52685546875 12.705  C 2.14436848958333 13.175  1.953125 13.74  1.953125 14.4  C 1.953125 15.06  2.14436848958333 15.625  2.52685546875 16.095  C 2.90934244791667 16.565  3.369140625 16.8  3.90625 16.8  C 4.443359375 16.8  4.90315755208333 16.565  5.28564453125 16.095  Z M 7.38525390625 4.245  L 6.298828125 10  L 18.701171875 10  L 17.61474609375 4.245  C 17.5984700520833 4.165  17.54150390625 4.0775  17.44384765625 3.9825  C 17.34619140625 3.8875  17.2607421875 3.84  17.1875 3.84  L 7.8125 3.84  C 7.7392578125 3.84  7.65380859375 3.8875  7.55615234375 3.9825  C 7.45849609375 4.0775  7.40152994791667 4.165  7.38525390625 4.245  Z M 22.47314453125 16.095  C 22.8556315104167 15.625  23.046875 15.06  23.046875 14.4  C 23.046875 13.74  22.8556315104167 13.175  22.47314453125 12.705  C 22.0906575520833 12.235  21.630859375 12  21.09375 12  C 20.556640625 12  20.0968424479167 12.235  19.71435546875 12.705  C 19.3318684895833 13.175  19.140625 13.74  19.140625 14.4  C 19.140625 15.06  19.3318684895833 15.625  19.71435546875 16.095  C 20.0968424479167 16.565  20.556640625 16.8  21.09375 16.8  C 21.630859375 16.8  22.0906575520833 16.565  22.47314453125 16.095  Z M 24.200439453125 10.5825  C 24.7334798177083 11.2375  25 12.03  25 12.96  L 25 18.72  C 25 18.86  24.96337890625 18.975  24.89013671875 19.065  C 24.81689453125 19.155  24.7233072916667 19.2  24.609375 19.2  L 23.4375 19.2  L 23.4375 21.12  C 23.4375 21.92  23.2096354166667 22.6  22.75390625 23.16  C 22.2981770833333 23.72  21.7447916666667 24  21.09375 24  C 20.4427083333333 24  19.8893229166667 23.72  19.43359375 23.16  C 18.9778645833333 22.6  18.75 21.92  18.75 21.12  L 18.75 19  L 6.25 19  L 6.25 21.12  C 6.25 21.92  6.02213541666667 22.6  5.56640625 23.16  C 5.11067708333333 23.72  4.55729166666667 24  3.90625 24  C 3.25520833333333 24  2.70182291666667 23.72  2.24609375 23.16  C 1.79036458333333 22.6  1.5625 21.92  1.5625 21.12  L 1.5625 19.2  L 0.390625 19.2  C 0.276692708333333 19.2  0.18310546875 19.155  0.10986328125 19.065  C 0.03662109375 18.975  0 18.86  0 18.72  L 0 12.96  C 0 12.03  0.266520182291667 11.2375  0.799560546875 10.5825  C 1.33260091145833 9.9275  1.9775390625 9.6  2.734375 9.6  L 3.076171875 9.6  L 4.35791015625 3.315  C 4.54508463541667 2.375  4.96826171875 1.5875  5.62744140625 0.9525  C 6.28662109375 0.317499999999999  7.01497395833333 0  7.8125 0  L 17.1875 0  C 17.9850260416667 0  18.71337890625 0.317499999999999  19.37255859375 0.9525  C 20.03173828125 1.5875  20.4549153645833 2.375  20.64208984375 3.315  L 21.923828125 9.6  L 22.265625 9.6  C 23.0224609375 9.6  23.6673990885417 9.9275  24.200439453125 10.5825  Z " fill-rule="nonzero" fill="#000000" stroke="none" transform="matrix(1 0 0 1 32 671 )" />
  </g>
</svg>