<?xml version="1.0" encoding="utf-8"?>
<svg version="1.1" xmlns:xlink="http://www.w3.org/1999/xlink" width="30px" height="23px" xmlns="http://www.w3.org/2000/svg">
  <g transform="matrix(1 0 0 1 -51 -335 )">
    <path d="M 6.3427734375 15.424375  C 6.8017578125 14.9739583333333  7.03125 14.4325  7.03125 13.8  C 7.03125 13.1675  6.8017578125 12.6260416666667  6.3427734375 12.175625  C 5.8837890625 11.7252083333333  5.33203125 11.5  4.6875 11.5  C 4.04296875 11.5  3.4912109375 11.7252083333333  3.0322265625 12.175625  C 2.5732421875 12.6260416666667  2.34375 13.1675  2.34375 13.8  C 2.34375 14.4325  2.5732421875 14.9739583333333  3.0322265625 15.424375  C 3.4912109375 15.8747916666667  4.04296875 16.1  4.6875 16.1  C 5.33203125 16.1  5.8837890625 15.8747916666667  6.3427734375 15.424375  Z M 8.8623046875 4.068125  L 7.55859375 9.2  L 22.44140625 9.2  L 21.1376953125 4.068125  C 21.1181640625 3.99145833333333  21.0498046875 3.90760416666666  20.9326171875 3.8165625  C 20.8154296875 3.72552083333333  20.712890625 3.68  20.625 4  L 9.375 4  C 9.287109375 3.68  9.1845703125 3.72552083333333  9.0673828125 3.8165625  C 8.9501953125 3.90760416666666  8.8818359375 3.99145833333333  8.8623046875 4.068125  Z M 26.9677734375 15.424375  C 27.4267578125 14.9739583333333  27.65625 14.4325  27.65625 13.8  C 27.65625 13.1675  27.4267578125 12.6260416666667  26.9677734375 12.175625  C 26.5087890625 11.7252083333333  25.95703125 11.5  25.3125 11.5  C 24.66796875 11.5  24.1162109375 11.7252083333333  23.6572265625 12.175625  C 23.1982421875 12.6260416666667  22.96875 13.1675  22.96875 13.8  C 22.96875 14.4325  23.1982421875 14.9739583333333  23.6572265625 15.424375  C 24.1162109375 15.8747916666667  24.66796875 16.1  25.3125 16.1  C 25.95703125 16.1  26.5087890625 15.8747916666667  26.9677734375 15.424375  Z M 29.04052734375 10.1415625  C 29.68017578125 10.7692708333333  30 11.52875  30 12.42  L 30 17.94  C 30 18.0741666666667  29.9560546875 18.184375  29.8681640625 18.270625  C 29.7802734375 18.356875  29.66796875 18.4  29.53125 18.4  L 28.125 18.4  L 28.125 20.24  C 28.125 21.0066666666667  27.8515625 21.6583333333333  27.3046875 22.195  C 26.7578125 22.7316666666667  26.09375 23  25.3125 23  C 24.53125 23  23.8671875 22.7316666666667  23.3203125 22.195  C 22.7734375 21.6583333333333  22.5 21.0066666666667  22.5 20.24  L 22.5 18  L 7.5 18  L 7.5 20.24  C 7.5 21.0066666666667  7.2265625 21.6583333333333  6.6796875 22.195  C 6.1328125 22.7316666666667  5.46875 23  4.6875 23  C 3.90625 23  3.2421875 22.7316666666667  2.6953125 22.195  C 2.1484375 21.6583333333333  1.875 21.0066666666667  1.875 20.24  L 1.875 18.4  L 0.46875 18.4  C 0.33203125 18.4  0.2197265625 18.356875  0.1318359375 18.270625  C 0.0439453125 18.184375  0 18.0741666666667  0 17.94  L 0 12.42  C 0 11.52875  0.31982421875 10.7692708333333  0.95947265625 10.1415625  C 1.59912109375 9.51385416666667  2.373046875 9.2  3.28125 9.2  L 3.69140625 9.2  L 5.2294921875 3.176875  C 5.4541015625 2.27604166666667  5.9619140625 1.52135416666666  6.7529296875 0.9128125  C 7.5439453125 0.304270833333332  8.41796875 0  9.375 0  L 20.625 0  C 21.58203125 0  22.4560546875 0.304270833333332  23.2470703125 0.9128125  C 24.0380859375 1.52135416666666  24.5458984375 2.27604166666667  24.7705078125 3.176875  L 26.30859375 9.2  L 26.71875 9.2  C 27.626953125 9.2  28.40087890625 9.51385416666667  29.04052734375 10.1415625  Z " fill-rule="nonzero" fill="#000000" stroke="none" transform="matrix(1 0 0 1 51 335 )" />
  </g>
</svg>