<?xml version="1.0" encoding="utf-8"?>
<svg version="1.1" xmlns:xlink="http://www.w3.org/1999/xlink" width="24px" height="21px" xmlns="http://www.w3.org/2000/svg">
  <g transform="matrix(1 0 0 1 -227 -421 )">
    <path d="M 13.859375 5.373046875  C 13.953125 5.455078125  14 5.55989583333333  14 5.6875  L 14 11.8125  C 14 11.9401041666667  13.953125 12.044921875  13.859375 12.126953125  C 13.765625 12.208984375  13.6458333333333 12.25  13.5 12.25  L 8.5 12.25  C 8.35416666666667 12.25  8.234375 12.208984375  8.140625 12.126953125  C 8.046875 12.044921875  8 11.9401041666667  8 11.8125  L 8 10.9375  C 8 10.8098958333333  8.046875 10.705078125  8.140625 10.623046875  C 8.234375 10.541015625  8.35416666666667 10.5  8.5 10.5  L 12 10.5  L 12 5.6875  C 12 5.55989583333333  12.046875 5.455078125  12.140625 5.373046875  C 12.234375 5.291015625  12.3541666666667 5.25  12.5 5.25  L 13.5 5.25  C 13.6458333333333 5.25  13.765625 5.291015625  13.859375 5.373046875  Z M 19.359375 14.232421875  C 20.1197916666667 13.0930989583333  20.5 11.8489583333333  20.5 10.5  C 20.5 9.15104166666667  20.1197916666667 7.90690104166667  19.359375 6.767578125  C 18.5989583333333 5.62825520833333  17.5677083333333 4.72591145833333  16.265625 4.060546875  C 14.9635416666667 3.39518229166667  13.5416666666667 3.0625  12 3.0625  C 10.4583333333333 3.0625  9.03645833333333 3.39518229166667  7.734375 4.060546875  C 6.43229166666667 4.72591145833333  5.40104166666667 5.62825520833333  4.640625 6.767578125  C 3.88020833333333 7.90690104166667  3.5 9.15104166666667  3.5 10.5  C 3.5 11.8489583333333  3.88020833333333 13.0930989583333  4.640625 14.232421875  C 5.40104166666667 15.3717447916667  6.43229166666667 16.2740885416667  7.734375 16.939453125  C 9.03645833333333 17.6048177083333  10.4583333333333 17.9375  12 17.9375  C 13.5416666666667 17.9375  14.9635416666667 17.6048177083333  16.265625 16.939453125  C 17.5677083333333 16.2740885416667  18.5989583333333 15.3717447916667  19.359375 14.232421875  Z M 22.390625 5.2294921875  C 23.4635416666667 6.83821614583333  24 8.59505208333333  24 10.5  C 24 12.4049479166667  23.4635416666667 14.1617838541667  22.390625 15.7705078125  C 21.3177083333333 17.3792317708333  19.8619791666667 18.6529947916667  18.0234375 19.591796875  C 16.1848958333333 20.5305989583333  14.1770833333333 21  12 21  C 9.82291666666667 21  7.81510416666667 20.5305989583333  5.9765625 19.591796875  C 4.13802083333333 18.6529947916667  2.68229166666667 17.3792317708333  1.609375 15.7705078125  C 0.536458333333333 14.1617838541667  0 12.4049479166667  0 10.5  C 0 8.59505208333333  0.536458333333333 6.83821614583333  1.609375 5.2294921875  C 2.68229166666667 3.62076822916667  4.13802083333333 2.34700520833333  5.9765625 1.408203125  C 7.81510416666667 0.469401041666665  9.82291666666667 0  12 0  C 14.1770833333333 0  16.1848958333333 0.469401041666665  18.0234375 1.408203125  C 19.8619791666667 2.34700520833333  21.3177083333333 3.62076822916667  22.390625 5.2294921875  Z " fill-rule="nonzero" fill="#8c8c8c" stroke="none" transform="matrix(1 0 0 1 227 421 )" />
  </g>
</svg>