<?xml version="1.0" encoding="utf-8"?>
<svg version="1.1" xmlns:xlink="http://www.w3.org/1999/xlink" width="75px" height="30px" xmlns="http://www.w3.org/2000/svg">
  <defs>
    <linearGradient gradientUnits="userSpaceOnUse" x1="37.5" y1="0" x2="37.5" y2="30" id="LinearGradient50">
      <stop id="Stop51" stop-color="#1bd2b4" offset="0" />
      <stop id="Stop52" stop-color="#12ae5a" offset="1" />
    </linearGradient>
  </defs>
  <g>
    <path d="M 0.5 14  A 13.5 13.5 0 0 1 14 0.5 L 61 0.5  A 13.5 13.5 0 0 1 74.5 14 L 74.5 16  A 13.5 13.5 0 0 1 61 29.5 L 14 29.5  A 13.5 13.5 0 0 1 0.5 16 L 0.5 14  Z " fill-rule="nonzero" fill="#ffffff" stroke="none" />
    <path d="M 0.5 14  A 13.5 13.5 0 0 1 14 0.5 L 61 0.5  A 13.5 13.5 0 0 1 74.5 14 L 74.5 16  A 13.5 13.5 0 0 1 61 29.5 L 14 29.5  A 13.5 13.5 0 0 1 0.5 16 L 0.5 14  Z " stroke-width="1" stroke="url(#LinearGradient50)" fill="none" />
  </g>
</svg>