<?xml version="1.0" encoding="utf-8"?>
<svg version="1.1" xmlns:xlink="http://www.w3.org/1999/xlink" width="26px" height="21px" xmlns="http://www.w3.org/2000/svg">
  <g transform="matrix(1 0 0 1 -238 -383 )">
    <path d="M 15.0143229166667 5.373046875  C 15.1158854166667 5.455078125  15.1666666666667 5.55989583333333  15.1666666666667 5.6875  L 15.1666666666667 11.8125  C 15.1666666666667 11.9401041666667  15.1158854166667 12.044921875  15.0143229166667 12.126953125  C 14.9127604166667 12.208984375  14.7829861111111 12.25  14.625 12.25  L 9.20833333333333 12.25  C 9.05034722222222 12.25  8.92057291666667 12.208984375  8.81901041666667 12.126953125  C 8.71744791666667 12.044921875  8.66666666666667 11.9401041666667  8.66666666666667 11.8125  L 8.66666666666667 10.9375  C 8.66666666666667 10.8098958333333  8.71744791666667 10.705078125  8.81901041666667 10.623046875  C 8.92057291666667 10.541015625  9.05034722222222 10.5  9.20833333333333 10.5  L 13 10.5  L 13 5.6875  C 13 5.55989583333333  13.05078125 5.455078125  13.15234375 5.373046875  C 13.25390625 5.291015625  13.3836805555556 5.25  13.5416666666667 5.25  L 14.625 5.25  C 14.7829861111111 5.25  14.9127604166667 5.291015625  15.0143229166667 5.373046875  Z M 20.97265625 14.232421875  C 21.7964409722222 13.0930989583333  22.2083333333333 11.8489583333333  22.2083333333333 10.5  C 22.2083333333333 9.15104166666667  21.7964409722222 7.90690104166667  20.97265625 6.767578125  C 20.1488715277778 5.62825520833333  19.0316840277778 4.72591145833333  17.62109375 4.060546875  C 16.2105034722222 3.39518229166667  14.6701388888889 3.0625  13 3.0625  C 11.3298611111111 3.0625  9.78949652777778 3.39518229166667  8.37890625 4.060546875  C 6.96831597222222 4.72591145833333  5.85112847222222 5.62825520833333  5.02734375 6.767578125  C 4.20355902777778 7.90690104166667  3.79166666666667 9.15104166666667  3.79166666666667 10.5  C 3.79166666666667 11.8489583333333  4.20355902777778 13.0930989583333  5.02734375 14.232421875  C 5.85112847222222 15.3717447916667  6.96831597222222 16.2740885416667  8.37890625 16.939453125  C 9.78949652777778 17.6048177083333  11.3298611111111 17.9375  13 17.9375  C 14.6701388888889 17.9375  16.2105034722222 17.6048177083333  17.62109375 16.939453125  C 19.0316840277778 16.2740885416667  20.1488715277778 15.3717447916667  20.97265625 14.232421875  Z M 24.2565104166667 5.2294921875  C 25.4188368055556 6.83821614583333  26 8.59505208333333  26 10.5  C 26 12.4049479166667  25.4188368055556 14.1617838541667  24.2565104166667 15.7705078125  C 23.0941840277778 17.3792317708333  21.5171440972222 18.6529947916667  19.525390625 19.591796875  C 17.5336371527778 20.5305989583333  15.3585069444444 21  13 21  C 10.6414930555556 21  8.46636284722222 20.5305989583333  6.474609375 19.591796875  C 4.48285590277778 18.6529947916667  2.90581597222222 17.3792317708333  1.74348958333333 15.7705078125  C 0.581163194444444 14.1617838541667  0 12.4049479166667  0 10.5  C 0 8.59505208333333  0.581163194444444 6.83821614583333  1.74348958333333 5.2294921875  C 2.90581597222222 3.62076822916667  4.48285590277778 2.34700520833333  6.474609375 1.408203125  C 8.46636284722222 0.469401041666665  10.6414930555556 0  13 0  C 15.3585069444444 0  17.5336371527778 0.469401041666665  19.525390625 1.408203125  C 21.5171440972222 2.34700520833333  23.0941840277778 3.62076822916667  24.2565104166667 5.2294921875  Z " fill-rule="nonzero" fill="#8c8c8c" stroke="none" transform="matrix(1 0 0 1 238 383 )" />
  </g>
</svg>