<?xml version="1.0" encoding="utf-8"?>
<svg version="1.1" xmlns:xlink="http://www.w3.org/1999/xlink" width="27px" height="31px" xmlns="http://www.w3.org/2000/svg">
  <g transform="matrix(1 0 0 1 -85 -85 )">
    <path d="M 7.875 0  L 19.125 0  C 21.29296875 0  23.1474609375 0.539155505952382  24.6884765625 1.61746651785714  C 26.2294921875 2.6957775297619  27 4.00186011904762  27 5.53571428571429  L 27 21.0357142857143  C 27 22.5349702380952  26.2646484375 23.8151041666667  24.7939453125 24.8761160714286  C 23.3232421875 25.9371279761905  21.533203125 26.4964657738095  19.423828125 26.5541294642857  L 23.16796875 30.0485491071429  C 23.35546875 30.2215401785714  23.40234375 30.4233630952381  23.30859375 30.6540178571429  C 23.21484375 30.8846726190476  23.0390625 31  22.78125 31  L 4.21875 31  C 3.9609375 31  3.78515625 30.8846726190476  3.69140625 30.6540178571429  C 3.59765625 30.4233630952381  3.64453125 30.2215401785714  3.83203125 30.0485491071429  L 7.576171875 26.5541294642857  C 5.466796875 26.4964657738095  3.6767578125 25.9371279761905  2.2060546875 24.8761160714286  C 0.7353515625 23.8151041666667  0 22.5349702380952  0 21.0357142857143  L 0 5.53571428571429  C 0 4.00186011904762  0.7705078125 2.6957775297619  2.3115234375 1.61746651785714  C 3.8525390625 0.539155505952382  5.70703125 0  7.875 0  Z M 11.109375 22.28125  C 11.765625 22.9270833333333  12.5625 23.25  13.5 23.25  C 14.4375 23.25  15.234375 22.9270833333333  15.890625 22.28125  C 16.546875 21.6354166666667  16.875 20.8511904761905  16.875 19.9285714285714  C 16.875 19.0059523809524  16.546875 18.2217261904762  15.890625 17.5758928571429  C 15.234375 16.9300595238095  14.4375 16.6071428571429  13.5 16.6071428571429  C 12.5625 16.6071428571429  11.765625 16.9300595238095  11.109375 17.5758928571429  C 10.453125 18.2217261904762  10.125 19.0059523809524  10.125 19.9285714285714  C 10.125 20.8511904761905  10.453125 21.6354166666667  11.109375 22.28125  Z M 3.375 13.2857142857143  L 23.625 13.2857142857143  L 23.625 5  L 3.375 5  L 3.375 13.2857142857143  Z " fill-rule="nonzero" fill="#000000" stroke="none" transform="matrix(1 0 0 1 85 85 )" />
  </g>
</svg>