<?xml version="1.0" encoding="utf-8"?>
<svg version="1.1" xmlns:xlink="http://www.w3.org/1999/xlink" width="177px" height="121px" xmlns="http://www.w3.org/2000/svg">
  <g transform="matrix(1 0 0 1 -190 -6 )">
    <path d="M 190 6  L 367 6  L 367 127  L 190 127  L 190 6  " fill-rule="nonzero" fill="#cccccc" stroke="none" />
    <path d="M 198 14  L 359 14  L 359 119  L 198 119  L 198 14  " fill-rule="nonzero" fill="#ffffff" stroke="none" />
    <path d="M 291.115 42.3  C 286.033 42.3  282.04 38.307  282.04 33.225  C 282.04 28.143  286.033 24.15  291.115 24.15  C 296.197 24.15  300.19 28.143  300.19 33.225  C 300.19 38.307  296.197 42.3  291.115 42.3  " fill-rule="nonzero" fill="#cccccc" stroke="none" />
    <path d="M 201 116  L 201 61.55  L 239.75 36.8  L 294 75.393220338983  L 325 51.65  L 356 75.393220338983  L 356 116  L 201 116  " fill-rule="nonzero" fill="#169bd5" stroke="none" />
  </g>
</svg>